<?xml version="1.0" encoding="UTF-8" ?>
<!DOCTYPE svg PUBLIC "-//W3C//DTD SVG 1.1//EN" "http://www.w3.org/Graphics/SVG/1.1/DTD/svg11.dtd">
<svg width="632pt" height="632pt" viewBox="0 0 632 632" version="1.1" xmlns="http://www.w3.org/2000/svg">
<g id="#fefefefe">
<path fill="#fefefe" opacity="1.00" d=" M 49.29 2.45 C 220.17 2.23 391.06 2.42 561.94 2.35 C 571.25 2.60 580.63 1.73 589.87 3.25 C 599.43 5.26 608.50 10.96 613.23 19.69 C 616.44 25.22 617.68 31.66 617.96 37.98 C 617.99 219.65 617.95 401.32 618.01 582.98 C 617.82 589.99 618.75 597.16 616.91 604.03 C 614.05 617.22 602.15 627.68 588.83 629.29 C 584.26 630.00 579.62 629.64 575.02 629.68 C 399.67 629.63 224.32 629.68 48.97 629.67 C 38.75 629.77 28.42 625.09 22.19 616.91 C 16.74 610.30 14.58 601.46 15.06 593.01 C 15.13 407.68 15.09 222.34 15.06 37.01 C 15.24 26.05 20.43 14.78 29.84 8.78 C 35.61 4.96 42.37 2.72 49.29 2.45 M 56.39 33.57 C 49.52 33.59 43.64 40.12 44.36 46.97 C 44.34 227.00 44.37 407.03 44.35 587.06 C 44.06 593.57 49.54 599.27 55.91 599.82 C 229.96 599.82 404.03 599.85 578.08 599.86 C 584.62 599.47 590.39 593.63 590.08 586.98 C 590.50 564.98 590.11 542.98 590.27 520.98 C 590.30 363.34 590.27 205.69 590.26 48.05 C 590.55 43.86 589.40 39.61 586.21 36.73 C 582.54 32.82 576.78 33.62 571.95 33.48 C 400.09 33.52 228.23 33.33 56.39 33.57 Z" />
<path fill="#fefefe" opacity="1.00" d=" M 221.41 80.54 C 231.22 77.29 242.73 85.67 242.15 96.09 C 242.34 102.25 238.57 107.39 234.90 111.95 C 215.28 138.99 195.87 166.18 175.87 192.93 C 173.63 195.97 169.93 198.18 166.07 197.48 C 160.73 196.41 157.62 191.55 153.90 188.07 C 149.91 183.79 144.72 179.92 143.37 173.91 C 141.85 167.86 145.37 161.78 150.00 158.13 C 154.65 154.13 162.13 154.99 165.76 149.61 C 180.64 129.53 195.38 109.35 210.25 89.28 C 212.78 85.16 216.53 81.55 221.41 80.54 Z" />
<path fill="#fefefe" opacity="1.00" d=" M 93.17 128.90 C 93.43 118.16 101.92 107.87 112.89 107.05 C 129.59 106.86 146.29 107.02 162.99 106.97 C 169.31 106.42 175.13 111.77 175.92 117.90 C 176.58 123.76 172.75 128.94 168.70 132.73 C 164.52 136.67 158.63 138.05 153.03 138.01 C 143.33 138.14 133.64 138.09 123.94 138.03 C 124.01 160.45 123.94 182.87 123.98 205.29 C 148.28 205.15 172.58 205.26 196.88 205.23 C 196.94 198.46 196.70 191.69 197.11 184.93 C 197.66 179.62 201.48 175.53 204.62 171.50 C 212.62 161.12 220.36 150.55 228.41 140.21 C 228.21 162.15 228.39 184.09 228.32 206.03 C 228.48 211.41 227.10 216.76 224.40 221.41 C 219.99 229.33 210.96 234.07 202.00 233.99 C 173.65 234.04 145.31 233.93 116.96 233.98 C 105.92 234.47 95.67 225.62 93.70 214.90 C 92.84 211.34 93.15 207.66 93.09 204.04 C 93.23 178.99 93.09 153.95 93.17 128.90 Z" />
<path fill="#fefefe" opacity="1.00" d=" M 280.12 122.25 C 299.40 121.71 318.73 122.14 338.03 122.01 C 401.02 122.02 464.02 122.02 527.02 122.01 C 533.88 121.56 540.37 126.51 542.51 132.93 C 545.72 142.29 537.69 152.88 528.00 152.96 C 446.30 152.94 364.60 152.95 282.90 152.95 C 276.37 152.64 270.13 148.00 268.56 141.53 C 265.83 133.26 271.52 123.73 280.12 122.25 Z" />
<path fill="#fefefe" opacity="1.00" d=" M 280.29 177.27 C 282.84 176.75 285.47 176.76 288.06 176.75 C 334.39 176.76 380.71 176.70 427.03 176.76 C 431.88 176.53 436.64 178.55 440.03 181.98 C 446.28 188.35 445.26 199.81 438.38 205.34 C 434.51 208.83 429.03 209.38 424.05 209.32 C 378.69 209.32 333.33 209.35 287.97 209.28 C 283.02 209.31 277.54 208.81 273.72 205.29 C 269.08 201.51 267.08 195.03 268.29 189.24 C 269.65 183.42 274.58 178.78 280.29 177.27 Z" />
<path fill="#fefefe" opacity="1.00" d=" M 222.20 251.19 C 230.96 249.03 240.31 255.27 242.04 264.02 C 243.17 269.58 240.76 275.14 237.37 279.43 C 217.96 305.71 198.98 332.29 179.75 358.68 C 177.20 361.83 175.11 366.06 170.88 367.16 C 166.53 368.73 161.58 366.59 158.85 363.06 C 153.92 357.39 147.18 352.98 144.09 345.92 C 141.18 339.49 144.69 331.98 150.11 328.14 C 154.17 325.26 159.49 325.26 163.63 322.61 C 169.34 316.21 173.96 308.92 179.15 302.11 C 189.51 288.10 199.91 274.12 210.19 260.05 C 212.90 255.71 216.95 251.95 222.20 251.19 Z" />
<path fill="#fefefe" opacity="1.00" d=" M 108.22 279.02 C 111.62 277.65 115.35 277.68 118.96 277.54 C 132.98 277.50 147.01 277.57 161.03 277.55 C 165.80 277.46 171.03 279.09 173.78 283.25 C 176.69 286.98 176.68 292.33 174.47 296.40 C 171.08 304.33 162.30 308.43 154.04 308.72 C 144.02 308.88 134.00 308.79 123.98 308.69 C 123.99 331.49 123.98 354.29 123.97 377.08 C 148.22 376.86 172.51 377.34 196.73 376.81 C 197.03 369.84 196.59 362.84 196.97 355.87 C 197.08 352.50 199.09 349.61 201.15 347.10 C 210.25 335.09 219.14 322.93 228.41 311.06 C 228.28 334.03 228.33 357.00 228.34 379.98 C 228.53 387.41 226.05 395.28 220.34 400.28 C 215.26 405.27 208.10 407.77 201.03 407.70 C 173.55 407.68 146.07 407.73 118.59 407.62 C 111.46 407.77 104.35 404.83 99.69 399.38 C 94.81 394.63 93.00 387.64 93.16 381.00 C 93.18 354.01 93.13 327.01 93.24 300.01 C 93.22 290.76 99.63 282.18 108.22 279.02 Z" />
<path fill="#fefefe" opacity="1.00" d=" M 280.34 293.47 C 299.19 293.04 318.11 293.41 336.98 293.28 C 400.97 293.28 464.95 293.31 528.93 293.27 C 538.21 293.32 545.42 303.15 543.00 312.01 C 541.84 317.89 536.94 322.58 531.14 323.84 C 528.43 324.15 525.70 324.08 522.98 324.13 C 443.34 324.06 363.69 324.17 284.05 324.07 C 274.02 324.43 265.37 313.77 268.41 304.03 C 269.84 298.48 274.75 294.39 280.34 293.47 Z" />
<path fill="#fefefe" opacity="1.00" d=" M 281.17 347.31 C 320.13 347.12 359.10 347.30 398.06 347.22 C 402.42 347.27 406.64 349.23 409.60 352.42 C 413.75 357.40 414.32 365.18 410.57 370.53 C 407.52 375.42 401.68 378.05 396.03 377.96 C 358.68 377.93 321.33 377.97 283.97 377.95 C 278.11 377.92 272.28 374.65 269.60 369.37 C 267.24 364.40 267.16 358.03 270.58 353.52 C 272.79 349.80 277.01 347.83 281.17 347.31 Z" />
<path fill="#fefefe" opacity="1.00" d=" M 219.47 423.61 C 227.30 420.62 237.70 424.04 240.91 432.13 C 243.26 437.54 242.05 443.88 238.77 448.63 C 219.29 475.58 200.12 502.76 180.27 529.44 C 177.58 533.43 174.28 538.18 168.95 538.33 C 163.73 538.87 159.96 534.70 156.62 531.37 C 151.85 526.50 145.80 522.09 143.76 515.29 C 141.35 508.15 145.96 500.29 152.47 497.21 C 157.00 494.65 163.39 495.22 166.50 490.48 C 179.89 472.85 192.62 454.73 205.94 437.04 C 209.73 431.97 213.12 425.82 219.47 423.61 Z" />
<path fill="#fefefe" opacity="1.00" d=" M 93.19 471.00 C 93.04 459.40 103.39 448.79 115.03 448.90 C 131.36 448.82 147.69 448.78 164.02 448.88 C 171.37 448.97 177.63 456.65 175.63 463.89 C 172.97 473.06 163.32 478.91 154.05 478.91 C 144.03 478.85 134.00 478.99 123.98 478.80 C 123.98 501.18 123.97 523.56 123.99 545.94 C 148.24 545.98 172.48 545.90 196.73 545.97 C 196.96 539.62 196.66 533.26 197.07 526.92 C 197.18 523.60 199.49 521.05 201.32 518.51 C 210.20 506.65 218.92 494.65 228.38 483.25 C 228.31 502.82 228.36 522.39 228.34 541.96 C 228.18 547.08 228.68 552.33 227.22 557.32 C 224.86 566.42 217.03 573.54 208.00 575.79 C 201.70 576.66 195.33 576.36 189.00 576.43 C 165.00 576.41 140.99 576.46 116.99 576.38 C 104.87 576.45 93.65 566.34 93.15 554.10 C 93.15 526.40 93.16 498.70 93.19 471.00 Z" />
<path fill="#fefefe" opacity="1.00" d=" M 278.28 465.46 C 280.75 464.65 283.41 464.86 285.98 464.76 C 366.31 464.76 446.65 464.74 526.98 464.74 C 532.48 464.47 538.09 467.28 540.91 472.07 C 545.20 478.30 543.27 487.61 537.04 491.84 C 532.87 495.40 527.13 494.91 522.03 494.82 C 442.64 494.80 363.26 494.74 283.87 494.79 C 277.29 494.92 270.82 490.70 268.71 484.41 C 265.95 476.81 270.75 467.96 278.28 465.46 Z" />
<path fill="#fefefe" opacity="1.00" d=" M 278.46 517.55 C 280.22 516.82 282.16 517.05 284.01 516.96 C 314.67 516.96 345.33 516.96 375.98 516.95 C 383.97 516.80 391.45 523.94 391.21 532.03 C 391.50 538.36 387.20 544.20 381.58 546.78 C 378.32 548.44 374.57 548.36 371.02 548.44 C 343.01 548.42 315.00 548.43 286.99 548.39 C 282.74 548.35 278.20 547.96 274.71 545.26 C 267.75 540.71 265.77 530.23 270.48 523.41 C 272.29 520.52 275.34 518.72 278.46 517.55 Z" />
</g>
</svg>
